<svg width="109" height="26" viewBox="0 0 109 26" fill="none" xmlns="http://www.w3.org/2000/svg">
<path fill-rule="evenodd" clip-rule="evenodd" d="M45.638 25.6698V8.11593H45.5225L38.3875 25.6698H35.6638L28.5118 8.11593H28.3975V25.6698H25.0513V1.81869H29.2997L36.96 20.826H37.0913L44.7345 1.82006H48.9999V25.6711H45.638V25.6698ZM67.5024 25.6698H64.1063V22.7279H64.0248C63.0729 24.8106 61.3182 25.9831 58.6773 25.9831C54.9214 25.9831 52.6231 23.5209 52.6231 19.5378V8.28105H56.1663V18.8434C56.1663 21.4877 57.414 22.9086 59.8567 22.9086C62.4175 22.9086 63.9593 21.1238 63.9593 18.4133V8.28105H67.5011V25.6698H67.5024ZM77.2127 7.96637C81.2312 7.96637 83.8394 10.2155 83.9549 13.4212H80.6245C80.4275 11.7364 79.197 10.6782 77.2127 10.6782C75.2927 10.6782 74.0135 11.6194 74.0135 13.0091C74.0135 14.0998 74.8015 14.8421 76.6703 15.2724L79.4754 15.9172C83.0028 16.7439 84.3477 18.1324 84.3477 20.644C84.3477 23.8186 81.4112 26 77.344 26C73.03 26 70.4362 23.868 70.1093 20.5621H73.6196C73.9479 22.3795 75.1784 23.2726 77.344 23.2726C79.4754 23.2726 80.7887 22.3795 80.7887 20.9586C80.7887 19.8342 80.1491 19.1737 78.262 18.7434L75.4568 18.083C72.1764 17.3225 70.5519 15.7353 70.5519 13.208C70.5519 10.0997 73.2427 7.96637 77.2127 7.96637ZM86.8059 3.68679C86.8059 2.54549 87.7253 1.63677 88.8559 1.63677C89.988 1.63677 90.8916 2.54674 90.8916 3.68679C90.8916 4.80991 89.988 5.73567 88.8559 5.73567C88.2881 5.73102 87.8045 5.52888 87.4049 5.12925C87.0054 4.72985 86.8062 4.24892 86.8073 3.68679H86.8059ZM87.0844 8.28105H90.6275V25.6698H87.0844V8.28105ZM105.587 14.265C105.226 12.4137 103.848 10.9421 101.535 10.9421C98.7961 10.9421 96.9916 13.2392 96.9916 16.9741C96.9916 20.7935 98.8118 23.0088 101.568 23.0088C103.748 23.0088 105.177 21.8023 105.587 19.7848H109C108.623 23.4871 105.687 26 101.537 26C96.599 26 93.3842 22.5941 93.3842 16.9755C93.3842 11.4543 96.599 7.96637 101.504 7.96637C105.949 7.96637 108.656 10.8433 108.967 14.265H105.588H105.587ZM14.2143 4.14569C13.2977 5.22987 11.844 6.09055 10.3888 5.96314C10.1983 4.49671 10.9272 2.9341 11.7494 1.97859C12.6646 0.860686 14.2459 0.065071 15.5421 0C15.7009 1.53138 15.1008 3.02904 14.2156 4.14705L14.2143 4.14569ZM15.5263 6.25045C16.3458 6.31404 18.7109 6.56763 20.2251 8.82444C20.099 8.92063 17.4187 10.478 17.4503 13.7514C17.4817 17.6644 20.8554 18.967 20.887 18.9995C20.8554 19.0957 20.3525 20.8442 19.122 22.655C18.0491 24.2463 16.9459 25.8038 15.1796 25.8362C13.4763 25.8674 12.9076 24.8183 10.9535 24.8183C8.99819 24.8183 8.36638 25.8038 6.75897 25.8674C5.05564 25.9298 3.76471 24.1813 2.69181 22.5914C0.482892 19.3804 -1.18751 13.5303 1.08303 9.58746C2.18623 7.61671 4.20466 6.3765 6.38076 6.34402C8.05254 6.31416 9.59832 7.45806 10.6069 7.45806C11.6166 7.45806 13.4133 6.12303 15.5263 6.24908V6.25045Z" fill="#828282"/>
</svg>
