<svg width="123" height="34" viewBox="0 0 123 34" fill="none" xmlns="http://www.w3.org/2000/svg">
<path fill-rule="evenodd" clip-rule="evenodd" d="M43.8133 8.28795H50.6338C54.858 8.28795 57.8427 11.0609 57.8427 15.0006C57.8427 18.9402 54.8552 21.7132 50.6338 21.7132H43.8133V8.28795ZM49.1143 18.0864H50.351C51.6763 18.0864 52.3846 17.2156 52.3846 15.0006C52.3846 12.7856 51.6763 11.9148 50.351 11.9148H49.1143V18.0864ZM69.8614 21.7132H58.6567V8.28795H69.8614V11.9148H63.9406V13.4676H69.5072V16.4322H63.9406V18.0892H69.8614V21.716V21.7132ZM82.337 21.7132H71.1324V8.28795H82.337V11.9148H76.4162V13.4676H81.9829V16.4322H76.4162V18.0892H82.337V21.716V21.7132ZM123 21.7132C122.237 19.6617 121.169 17.4692 119.733 15.0147C121.412 14.5272 122.417 13.4845 122.417 11.8782C122.417 9.43772 120.138 8.28513 116.534 8.28513H109.111V21.7104H114.412V16.156C115.588 18.1146 116.457 19.9604 117.028 21.7104H123V21.7132ZM114.412 11.9148H116.248C117.025 11.9148 117.468 12.3347 117.468 13.1012C117.468 13.8677 117.025 14.2876 116.248 14.2876H114.412V11.9148ZM107.837 21.7132H96.632V8.28795H107.837V11.9148H101.916V13.4676H107.483V16.4322H101.916V18.0892H107.837V21.716V21.7132ZM83.608 11.9148H89.0775C86.8069 13.7465 84.939 15.8235 83.5023 18.0864V21.7132H95.5381V18.0864H89.5231C90.9026 16.1081 92.8277 14.1383 95.5381 11.9148V8.28795H83.6109V11.9148H83.608Z" fill="#828282"/>
<path fill-rule="evenodd" clip-rule="evenodd" d="M28.9014 5.18806C29.2212 3.36477 29.6868 2.21782 30.2066 2.215C31.172 2.21782 31.9574 6.19412 31.9574 11.1032C31.9574 16.0123 31.172 19.9914 30.2066 19.9914C29.8096 19.9914 29.444 19.315 29.1498 18.1822C28.6843 22.3276 27.7189 25.1766 26.5993 25.1766C25.7339 25.1766 24.957 23.4661 24.4343 20.7663C24.0773 25.9009 23.1833 29.5418 22.1351 29.5418C21.4782 29.5418 20.8784 28.099 20.4357 25.7487C19.9016 30.5986 18.6706 34 17.2311 34C15.7916 34 14.5578 30.6014 14.0265 25.7487C13.5867 28.099 12.9869 29.5418 12.3271 29.5418C11.2789 29.5418 10.385 25.8981 10.0279 20.7663C9.50526 23.4661 8.73124 25.1766 7.86297 25.1766C6.74622 25.1766 5.77799 22.3276 5.31243 18.1822C5.02111 19.3179 4.65266 19.9914 4.25566 19.9914C3.28743 19.9914 2.50484 16.0123 2.50484 11.1032C2.50484 6.19412 3.28743 2.215 4.25566 2.215C4.77548 2.215 5.23817 3.36477 5.56092 5.18806C6.07788 2.0431 6.91473 0 7.86297 0C8.9883 0 9.96224 2.89134 10.4249 7.08744C10.8762 4.03266 11.5617 2.08537 12.3271 2.08537C13.401 2.08537 14.315 5.91513 14.6549 11.2582C15.2918 8.51902 16.2144 6.8 17.234 6.8C18.2536 6.8 19.1762 8.51902 19.8102 11.2582C20.1501 5.91513 21.0612 2.08537 22.138 2.08537C22.9034 2.08537 23.5861 4.03266 24.0402 7.08744C24.5 2.89134 25.4768 0 26.5993 0C27.5447 0 28.3844 2.04592 28.9014 5.18806ZM0 10.2296C0 8.03431 0.445559 6.25611 0.993939 6.25611C1.54232 6.25611 1.98788 8.03431 1.98788 10.2296C1.98788 12.4249 1.54232 14.2031 0.993939 14.2031C0.445559 14.2031 0 12.422 0 10.2296ZM32.4744 10.2296C32.4744 8.03431 32.92 6.25611 33.4683 6.25611C34.0167 6.25611 34.4623 8.03431 34.4623 10.2296C34.4623 12.4249 34.0167 14.2031 33.4683 14.2031C32.92 14.2031 32.4744 12.422 32.4744 10.2296Z" fill="#828282"/>
</svg>
