<svg width="32" height="32" viewBox="0 0 32 32" fill="none" xmlns="http://www.w3.org/2000/svg">
<mask id="mask0_284_740" style="mask-type:alpha" maskUnits="userSpaceOnUse" x="0" y="0" width="32" height="32">
<path d="M32 16C32 24.8366 24.8366 32 16 32C7.16344 32 0 24.8366 0 16C0 7.16344 7.16344 0 16 0C24.8366 0 32 7.16344 32 16Z" fill="white"/>
</mask>
<g mask="url(#mask0_284_740)">
<path d="M32 16C32 24.8366 24.8366 32 16 32C7.16344 32 0 24.8366 0 16C0 7.16344 7.16344 0 16 0C24.8366 0 32 7.16344 32 16Z" fill="black"/>
<mask id="mask1_284_740" style="mask-type:alpha" maskUnits="userSpaceOnUse" x="2" y="3" width="28" height="27">
<path d="M29.125 16.6332C29.125 23.8819 23.2487 29.7582 16 29.7582C8.75126 29.7582 2.875 23.8819 2.875 16.6332C2.875 9.38444 8.75126 3.50818 16 3.50818C23.2487 3.50818 29.125 9.38444 29.125 16.6332Z" fill="#D9D9D9"/>
</mask>
<g mask="url(#mask1_284_740)">
<path d="M6.625 28.275V4.99133H9.50312V28.275H6.625Z" fill="white"/>
<path d="M18.6382 28.275V18.5896L10.7962 4.99133H14.1432L20.0935 15.2911L26.0276 4.99133H29.3746L21.5487 18.5896V28.275H18.6382Z" fill="white"/>
<path fill-rule="evenodd" clip-rule="evenodd" d="M16 28.2904C22.7878 28.2904 28.2904 22.7878 28.2904 16C28.2904 9.21218 22.7878 3.70956 16 3.70956C9.21218 3.70956 3.70956 9.21218 3.70956 16C3.70956 22.7878 9.21218 28.2904 16 28.2904ZM16 29.7188C23.5767 29.7188 29.7188 23.5767 29.7188 16C29.7188 8.42334 23.5767 2.28125 16 2.28125C8.42334 2.28125 2.28125 8.42334 2.28125 16C2.28125 23.5767 8.42334 29.7188 16 29.7188Z" fill="black"/>
</g>
</g>
</svg>
