<svg width="106" height="32" viewBox="0 0 106 32" fill="none" xmlns="http://www.w3.org/2000/svg">
<path d="M16.4715 0C7.37435 0 0 7.1632 0 16.0001C0 24.8365 7.37435 32 16.4715 32C25.5686 32 32.943 24.8365 32.943 16.0001C32.943 7.1632 25.5686 0 16.4715 0ZM23.9745 23.1212C23.8988 23.2374 23.8003 23.3379 23.6845 23.417C23.5687 23.4961 23.438 23.5523 23.2998 23.5822C23.1617 23.6121 23.0188 23.6152 22.8794 23.5914C22.74 23.5675 22.6068 23.5172 22.4875 23.4432C19.7013 21.7219 16.5312 21.2274 13.8573 21.2286C10.996 21.2268 8.73361 21.7955 8.25806 21.927C8.19003 21.9456 8.16602 21.953 8.16602 21.953C7.89296 22.0348 7.59824 22.0079 7.34561 21.8782C7.09298 21.7485 6.90374 21.5266 6.81954 21.2613C6.73533 20.9961 6.76305 20.7092 6.8966 20.4638C7.03014 20.2184 7.25857 20.0346 7.53164 19.9528C7.59689 19.9349 10.2569 19.1372 13.8576 19.1357C16.7925 19.1369 20.3818 19.6679 23.6433 21.6774C23.8842 21.8263 24.0544 22.062 24.1165 22.3327C24.1786 22.6034 24.1275 22.887 23.9745 23.1212ZM26.1134 18.6949C26.0261 18.8387 25.9105 18.9643 25.7731 19.0646C25.6358 19.1648 25.4794 19.2378 25.313 19.2794C25.1466 19.3209 24.9734 19.3302 24.8033 19.3067C24.6332 19.2831 24.4695 19.2273 24.3217 19.1422C20.6422 17.0287 16.8513 16.4546 13.8176 16.454C10.7457 16.4531 8.47259 17.0487 8.01181 17.1815C7.94594 17.2 7.92809 17.206 7.92809 17.206C7.59957 17.3044 7.24438 17.2732 6.9393 17.1193C6.63423 16.9653 6.40379 16.7009 6.29779 16.3833C6.1918 16.0656 6.21877 15.7202 6.37288 15.4217C6.52699 15.1231 6.79585 14.8955 7.12134 14.788C7.20875 14.7623 9.9125 13.9147 13.8173 13.9129C17.1828 13.9123 21.4659 14.5503 25.6529 16.9545C25.9516 17.126 26.1679 17.4057 26.2542 17.7321C26.3406 18.0585 26.2899 18.4048 26.1134 18.6949ZM27.1218 14.4911C26.8602 14.4911 26.5951 14.4275 26.3514 14.2938C22.2539 12.0436 17.9015 11.4133 14.347 11.4139C10.6211 11.4127 7.80251 12.1097 7.2223 12.2667C7.13919 12.2894 7.11457 12.2969 7.11457 12.2969C6.91741 12.3553 6.71033 12.3755 6.50516 12.3562C6.29999 12.3369 6.10074 12.2785 5.9188 12.1844C5.73686 12.0902 5.5758 11.9622 5.44481 11.8076C5.31382 11.653 5.21548 11.4748 5.1554 11.2833C5.09521 11.0917 5.07445 10.8905 5.09432 10.6912C5.11419 10.4919 5.17428 10.2983 5.27118 10.1215C5.36808 9.94472 5.49987 9.78822 5.65905 9.66092C5.81822 9.53363 6.00164 9.43804 6.19885 9.37962C6.29766 9.35241 9.63363 8.36723 14.347 8.36454C18.2715 8.36514 23.1782 9.05312 27.8953 11.6385C28.1977 11.8041 28.4351 12.0623 28.5703 12.3729C28.7054 12.6835 28.7308 13.0288 28.6424 13.3549C28.554 13.681 28.3568 13.9694 28.0816 14.175C27.8065 14.3806 27.4689 14.4918 27.1218 14.4911ZM57.2391 11.9719C54.307 11.9719 52.0449 14.582 52.0449 17.8022C52.0449 21.022 54.0841 23.6325 57.2391 23.6325C60.1713 23.6325 62.5487 21.022 62.5487 17.8022C62.5487 14.582 60.1716 11.9719 57.2391 11.9719ZM56.5659 21.0911C54.8278 21.0911 53.507 19.6185 53.507 17.8022C53.507 15.9858 54.8275 14.5133 56.5659 14.5133C58.4439 14.5133 59.6249 15.9858 59.6249 17.8022C59.6249 19.6185 58.3814 21.0911 56.5659 21.0911Z" fill="#828282"/>
<path d="M50.6792 12.2333H53.6033V14.3824L52.9492 16.4753V19.3905L53.6224 21.801V26.7158H50.6598L50.6792 12.2333ZM69.4743 11.9591C66.1029 11.9591 63.3696 14.5693 63.3696 17.7894C63.3696 21.0095 66.1029 23.6197 69.4743 23.6197C72.8457 23.6197 75.579 21.0095 75.579 17.7894C75.579 14.5693 72.846 11.9591 69.4743 11.9591ZM69.4617 21.153C67.6696 21.153 66.2168 19.6581 66.2168 17.8142C66.2168 15.9707 67.6696 14.4757 69.4617 14.4757C71.2534 14.4757 72.7062 15.9707 72.7062 17.8142C72.7062 19.6581 71.2537 21.153 69.4617 21.153ZM84.2488 12.2085H87.2241V23.4454H84.2488V12.2085Z" fill="#828282"/>
<path d="M85.7879 10.8131C86.7936 10.8131 87.6088 10.0211 87.6088 9.04425C87.6088 8.06735 86.7936 7.27542 85.7879 7.27542C84.7822 7.27542 83.9669 8.06735 83.9669 9.04425C83.9669 10.0211 84.7822 10.8131 85.7879 10.8131Z" fill="#828282"/>
<path d="M92.7387 11.6604V23.4083H89.7634V11.9743C89.7634 11.9743 89.4993 7.84051 93.4829 7.92274C93.4829 7.92274 94.6624 7.94755 95.6117 8.29647V10.7081C95.6117 10.7081 94.8687 10.4229 93.8677 10.4145C93.8677 10.4145 92.7233 10.3786 92.7387 11.6604ZM80.132 19.8802V9.26759H77.1567V20.2943C77.1567 20.2943 76.9336 23.8147 80.8762 23.5802C80.8762 23.5802 82.0151 23.5802 83.005 22.9715V20.6322C83.005 20.6322 82.262 21.0478 81.261 21.0559C81.261 21.0559 80.0898 21.0861 80.132 19.8802Z" fill="#828282"/>
<path d="M102.95 12.2085L100.203 19.9323L97.1464 12.2085H88.4039V14.6999H95.0731L98.7412 23.1216C98.4352 24.3923 97.3816 24.3176 97.3816 24.3176C96.6376 24.3176 95.817 23.8191 95.817 23.8191L94.8167 25.9121C95.6203 26.6383 97.5869 26.7343 97.5869 26.7343C100.511 26.7343 101.357 23.9438 101.357 23.9438L106 12.2085H102.95ZM75.767 12.215H83.0847V14.705H75.767V12.215ZM47.6972 12.5822C47.6972 12.5822 45.7734 11.0873 43.7213 11.0873C43.7213 11.0873 41.6442 10.9829 41.5411 12.5075C41.5411 12.5075 41.4353 13.7937 42.9429 14.1621C42.9429 14.1621 46.6393 15.2313 47.5679 15.6693C47.5679 15.6693 49.8337 16.5911 49.6979 19.4342C49.6979 19.4342 49.7139 23.5689 44.183 23.62C44.183 23.62 40.3869 23.7199 37.8475 21.1037L39.6429 19.1352C39.6429 19.1352 41.6436 21.029 44.3369 21.029C44.3369 21.029 46.486 21.0986 46.7224 19.534C46.7224 19.534 46.9911 18.1473 44.9525 17.6901C44.9525 17.6901 41.7975 16.9179 40.7716 16.4194C40.7716 16.4194 38.4259 15.5987 38.5145 12.6572C38.5145 12.6572 38.6244 8.42594 43.9011 8.4962C43.9011 8.4962 46.9551 8.39933 49.2876 10.4396L47.6972 12.5822Z" fill="#828282"/>
</svg>
