<svg width="138" height="29" viewBox="0 0 138 29" fill="none" xmlns="http://www.w3.org/2000/svg">
<path d="M44.2726 21.75L49.2542 7.14641H46.7923L42.7993 19.1814H42.4118L38.5542 7.14641H36.0538L40.8804 21.75H44.2726Z" fill="#828282"/>
<path d="M55.7123 14.1893L61.5081 7.14641H58.6394L53.7932 13.0914H53.2312V7.14641H50.9052V21.75H53.2312V15.4943H53.8127L58.93 21.75H61.9927L55.7123 14.1893Z" fill="#828282"/>
<path d="M69.7931 21.75V10.4607H70.1033L73.9217 21.75H76.0927L79.9891 10.4607H80.299V21.75H82.5672V7.14641H79.0005L75.2013 18.1871H74.8911L71.1695 7.14641H67.5252V21.75H69.7931Z" fill="#828282"/>
<path d="M89.8706 18.7464H89.5604L86.5946 10.9786H84.2103L88.688 22.33L88.5718 22.6614C88.2809 23.5314 87.9322 23.8214 87.1954 23.8214H85.3154L85.5091 25.9964H87.0405C88.9013 25.9964 89.9092 25.1057 90.5876 23.0964L94.7165 10.9786H92.4487L89.8706 18.7464Z" fill="#828282"/>
<path d="M101.728 16.2607C102.756 15.9707 103.511 15.08 103.511 13.8579C103.511 12.0557 101.903 10.7714 99.6734 10.7714C97.6769 10.7714 95.9906 11.7657 95.3703 13.8164L97.4251 14.1893C97.8322 13.34 98.6267 12.8014 99.5961 12.8014C100.526 12.8014 101.282 13.2986 101.282 14.1064C101.282 14.8314 100.662 15.3079 99.4604 15.3079H98.2004V17.3793H99.4604C100.972 17.3793 101.437 17.9179 101.437 18.6014C101.437 19.43 100.74 19.9271 99.4604 19.9271C98.2973 19.9271 97.6189 19.5129 97.173 18.56L95.1184 18.9328C95.6028 20.735 97.2506 21.9571 99.4797 21.9571C102.038 21.9571 103.667 20.5486 103.667 18.7878C103.667 17.4414 102.756 16.5921 101.728 16.2607Z" fill="#828282"/>
<path d="M109.595 21.75C111.999 21.75 113.705 20.155 113.705 17.8972C113.705 15.6393 112.018 14.0443 109.595 14.0443H108.025V10.9786H105.796V21.75H109.595ZM117.136 21.75V10.9786H114.906V21.75H117.136ZM108.025 16.1157H109.595C110.7 16.1157 111.475 16.8407 111.475 17.8972C111.475 18.9536 110.7 19.6786 109.595 19.6786H108.025V16.1157Z" fill="#828282"/>
<path d="M128.84 21.75L124.208 16.1572L128.453 10.9786H125.797L122.424 15.1629H121.882V10.9786H119.652V21.75H121.882V17.4622H122.424L125.914 21.75H128.84Z" fill="#828282"/>
<path d="M133.832 10.7714C131.875 10.7714 130.149 11.8486 129.646 13.7129L131.7 14.0857C132.01 13.4229 132.708 12.8014 133.716 12.8014C134.937 12.8014 135.655 13.7336 135.751 15.1421H133.58C130.615 15.1421 129.142 16.53 129.142 18.5186C129.142 20.5279 130.595 21.9571 132.65 21.9571C134.298 21.9571 135.402 20.9421 135.887 20.0514L136.352 21.75H138V15.7014C138 12.5736 136.41 10.7714 133.832 10.7714ZM133.173 19.9478C132.088 19.9478 131.39 19.3471 131.39 18.415C131.39 17.5864 131.952 17.0064 133.658 17.0064H135.771C135.771 18.7671 134.724 19.9478 133.173 19.9478Z" fill="#828282"/>
<path fill-rule="evenodd" clip-rule="evenodd" d="M1.90758 2.03854C0.0570515 4.01609 0.00169061 7.16286 3.57768e-05 13.3398C5.18 13.3398 8.41412 10.9633 11.251 8.8787C13.4672 7.2502 15.441 5.79983 17.9106 5.79983C21.5865 5.79983 24.7961 8.57727 26.4979 10.05C26.7379 10.2577 26.9479 10.4394 27.1251 10.5838C27.0714 6.17973 26.7823 3.69765 25.2297 2.03854C23.3221 9.67979e-07 20.2519 6.75074e-07 14.1114 1.0141e-07L13.0259 0C6.88542 1.63886e-06 3.81518 1.38283e-06 1.90758 2.03854ZM12.2281 28.9998C12.4881 29 12.754 29 13.0259 29H14.1114C14.3833 29 14.6492 29 14.9092 28.9998H12.2281Z" fill="#828282"/>
<path fill-rule="evenodd" clip-rule="evenodd" d="M11.251 8.8787C8.41412 10.9633 5.18 13.3398 3.57768e-05 13.3398C-1.39132e-05 13.5303 2.65013e-06 13.7237 2.65013e-06 13.92V15.08C2.65013e-06 21.6419 2.58802e-06 24.9229 1.9076 26.9615C3.73076 28.9097 6.61568 28.996 12.2281 28.9998H14.9092C20.5216 28.996 23.4066 28.9097 25.2298 26.9615C27.1373 24.9229 27.1373 21.6419 27.1373 15.08V13.92C27.1373 12.6986 27.1373 11.5909 27.1251 10.5838C26.9485 10.4398 26.7391 10.2587 26.5 10.0518L26.4979 10.05C24.7961 8.57727 21.5865 5.79983 17.9106 5.79983C15.441 5.79983 13.4672 7.2502 11.251 8.8787ZM16.6897 11.4478C16.6897 10.7311 17.2402 10.1501 17.9109 10.1501C18.5816 10.1501 19.1321 10.7311 19.1321 11.4478V23.3523C19.1321 24.069 18.5816 24.6501 17.9109 24.6501C17.2402 24.6501 16.6897 24.069 16.6897 23.3523V11.4478ZM21.0316 14.7828C21.0316 14.066 21.5821 13.485 22.2528 13.485C22.9235 13.485 23.4739 14.066 23.4739 14.7828V20.0173C23.4739 20.734 22.9235 21.315 22.2528 21.315C21.5821 21.315 21.0316 20.734 21.0316 20.0173V14.7828ZM13.5689 13.485C12.8982 13.485 12.3478 14.066 12.3478 14.7828V20.0173C12.3478 20.734 12.8982 21.315 13.5689 21.315C14.2396 21.315 14.7901 20.734 14.7901 20.0173V14.7828C14.7901 14.066 14.2396 13.485 13.5689 13.485ZM8.00524 16.6677C8.00524 15.951 8.55575 15.37 9.22642 15.37C9.89712 15.37 10.4476 15.951 10.4476 16.6677V18.1322C10.4476 18.849 9.89712 19.43 9.22642 19.43C8.55575 19.43 8.00524 18.849 8.00524 18.1322V16.6677ZM4.88444 15.37C4.21377 15.37 3.66326 15.951 3.66326 16.6677V18.1322C3.66326 18.849 4.21377 19.43 4.88444 19.43C5.55514 19.43 6.10562 18.849 6.10562 18.1322V16.6677C6.10562 15.951 5.55514 15.37 4.88444 15.37Z" fill="#828282"/>
</svg>
