<svg width="182" height="20" viewBox="0 0 182 20" fill="none" xmlns="http://www.w3.org/2000/svg">
<path fill-rule="evenodd" clip-rule="evenodd" d="M78.5357 9.13463C78.5357 14.1795 74.4554 18.2692 69.4224 18.2692C64.3892 18.2692 60.3092 14.1795 60.3092 9.13463C60.3092 4.08972 64.3892 0 69.4224 0C74.4554 0 78.5357 4.08972 78.5357 9.13463ZM76.2889 7.03885L76.3479 7.31579L74.1692 7.8432L76.4799 9.5601L76.4559 9.84836L73.8816 8.88793L75.7252 12.2966L75.5694 12.5496L73.1634 9.80052L73.7974 14.5774L73.5224 14.7939L71.9766 10.0888L69.4386 16.103H69.0431L70.3479 9.71618L63.7374 13.3413L63.4976 13.0178L69.0543 8.38318L62.3962 7.65187L62.4678 7.25536L68.8749 6.71536L64.2284 4.05063L64.4682 3.7863L69.6659 5.52712L67.0425 2.20155L67.3301 2.11723L70.7434 4.86628L70.4206 1.90198H70.6593L72.013 4.97455L73.2224 2.91022L73.4258 3.0298L73.1746 5.57495L75.1626 4.61455L75.3182 4.79455L73.9658 6.63104L76.2889 7.03885Z" fill="#828282"/>
<path d="M34.376 5.82413C31.5077 5.82413 30.169 8.03699 30.169 11.0441C30.169 14.5044 31.8481 16.1885 34.867 16.1885C36.3576 16.1885 37.4702 15.7908 38.1495 15.3376V13.4093C37.4325 13.9203 36.1867 14.3357 35.0553 14.3357C33.3387 14.3357 32.6969 13.5414 32.5839 11.8585H38.2625V10.591C38.2625 7.14958 36.7342 5.82539 34.376 5.82539V5.82413ZM35.8666 10.1164H32.5839C32.6404 8.50902 33.2256 7.71476 34.3383 7.71476C35.5074 7.71476 35.8666 8.67895 35.8666 9.90873V10.1164Z" fill="#828282"/>
<path d="M47.8656 6.01414H45.526L42.187 10.6287V6.01414H39.8474V16.0185H42.187V11.1007L45.6779 16.0185H48.3566L44.5641 10.6287L47.8656 6.01414Z" fill="#828282"/>
<path d="M21.6785 6.01414V6.88394C21.6785 9.32335 21.528 12.4626 20.6789 14.1456H19.9431V18.2679H22.132V16.0173H27.4338V18.2679H29.5661V14.1456H28.5478V6.01414H21.6785ZM26.188 14.1456H22.8678C23.5095 12.6326 23.6791 9.90993 23.6791 8.20687V7.88588H26.188V14.1456Z" fill="#828282"/>
<path d="M0.320226 6.69513C0.320226 8.83245 1.33867 10.0799 3.13194 11.3474L0 16.0186H2.58441L6.07425 10.8175L4.86618 9.98545C3.43206 9.00238 2.69618 8.2459 2.69618 6.56297C2.69618 5.10661 3.69577 4.10466 5.65858 4.10466H6.75236V16.0186H9.14841V2.25055H5.65858C2.15117 2.25055 0.320226 4.04675 0.320226 6.69513Z" fill="#828282"/>
<path d="M16.6027 9.98545H13.4708V6.01414H11.1124V16.0185H13.4708V11.8383H16.6027V16.0185H18.9611V6.01414H16.6027V9.98545Z" fill="#828282"/>
<path d="M53.0356 7.71602C53.9599 7.71602 54.8277 8.01812 55.2999 8.32147V6.31629C54.8088 6.0142 53.9599 5.82413 52.772 5.82413C49.7719 5.82413 48.2058 7.99922 48.2058 11.0063C48.2058 14.3533 49.7342 16.1885 52.8661 16.1885C53.9599 16.1885 54.7335 16.0186 55.2999 15.5831V13.6547C54.7335 14.0902 54.0164 14.3357 52.9981 14.3357C51.319 14.3357 50.6397 13.0115 50.6397 10.9698C50.6397 8.79474 51.5073 7.71726 53.0356 7.71726V7.71602Z" fill="#828282"/>
<path d="M128.075 10.8605C129.921 10.4891 130.808 9.57907 130.808 8.62621C130.808 6.62609 128.026 5.65686 124.358 5.65686C121.839 5.65686 119.944 6.14147 118.634 6.80861V8.96985C119.783 8.3644 121.677 7.77783 123.652 7.77783C125.063 7.77783 125.889 8.08118 125.889 8.849C125.889 9.61684 125.183 9.92019 123.51 9.92019H121.212V12.0613H123.49C125.647 12.0613 126.192 12.3647 126.192 13.1325C126.192 13.7795 125.365 14.2641 123.43 14.2641C120.79 14.2641 119.258 13.456 118.332 13.0116V15.2333C119.138 15.7179 121.013 16.3045 123.975 16.3045C128.61 16.3045 131.171 15.0923 131.171 13.1123C131.171 11.8461 130.057 11.1449 128.075 10.8617V10.8605Z" fill="#828282"/>
<path d="M92.7638 10.0511L89.3291 2.22175H83.545V15.9998H85.7414V5.86704L90.256 15.9998H92.7562L97.2092 5.86326V15.9998H102.127V2.22175H96.1016L92.7638 10.0511Z" fill="#828282"/>
<path d="M115.53 6.02058L112.137 12.3243L108.456 6.02058H102.975L109.5 16.8633L107.529 20H110.33L113.091 15.4346L118.332 6.02058H115.53Z" fill="#828282"/>
<path d="M150.88 6.02058H145.983V15.9998H150.88V6.02058Z" fill="#828282"/>
<path d="M166.742 6.02058H163.054L157.733 9.9793V6.02058H152.836V15.9998H157.733V11.8384L161.22 15.9998H167.528L161.828 9.60671L166.742 6.02058Z" fill="#828282"/>
<path d="M139.474 8.74712H137.459V6.01946H132.541V15.9999H139.454C143.142 15.9999 145.42 14.7072 145.42 12.303C145.42 10.1418 143.405 8.74712 139.474 8.74712ZM138.788 13.9193H137.459V10.8278H138.788C139.857 10.8278 140.481 11.3326 140.481 12.3635C140.481 13.5555 139.937 13.9193 138.788 13.9193Z" fill="#828282"/>
<path d="M177.283 6.04076L177.174 7.29571C176.176 6.36929 174.689 5.87965 172.789 5.87965C169.443 5.87965 166.702 7.69724 166.702 11.0719C166.702 14.4466 169.301 16.2843 172.769 16.2843C174.634 16.2843 176.157 15.7871 177.184 14.8229L177.283 16.0024H182V6.04076H177.283ZM174.421 14.0614C172.749 14.0614 171.72 13.2168 171.72 11.0518C171.72 8.75333 172.789 8.10256 174.421 8.10256C175.913 8.10256 177.102 8.73193 177.102 11.0518C177.102 13.3716 176.095 14.0614 174.421 14.0614Z" fill="#828282"/>
</svg>
