<svg width="106" height="24" viewBox="0 0 106 24" fill="none" xmlns="http://www.w3.org/2000/svg">
<path fill-rule="evenodd" clip-rule="evenodd" d="M30.1113 0.714617C31.5687 1.1128 32.7143 2.27451 33.1015 3.7473C33.8061 6.42 33.8061 12.0001 33.8061 12.0001C33.8061 12.0001 33.8061 17.58 33.1015 20.2527C32.7089 21.7308 31.5635 22.8927 30.1113 23.2854C27.4762 24 16.903 24 16.903 24C16.903 24 6.33532 24 3.69471 23.2854C2.23731 22.8872 1.09176 21.7255 0.704588 20.2527C0 17.58 0 11.9999 0 11.9999C0 11.9999 0 6.42 0.704588 3.7473C1.09718 2.26916 2.24273 1.1073 3.69471 0.714617C6.33532 0 16.903 0 16.903 0C16.903 0 27.4762 0 30.1113 0.714617ZM22.3079 11.9999L13.5257 17.1436V6.85638L22.3079 11.9999Z" fill="#828282"/>
<path fill-rule="evenodd" clip-rule="evenodd" d="M49.323 21.5399C48.659 21.0936 48.1826 20.4028 47.9042 19.4623C47.6257 18.5217 47.4811 17.2729 47.4811 15.7105V13.585C47.4811 12.0068 47.6417 10.7422 47.963 9.78547C48.2842 8.82906 48.7876 8.133 49.4674 7.69716C50.1474 7.26146 51.0416 7.03832 52.1498 7.03832C53.2421 7.03832 54.1148 7.26146 54.7732 7.70787C55.4318 8.15415 55.9136 8.85035 56.2189 9.79618C56.5241 10.7422 56.674 12.0068 56.674 13.5797V15.7053C56.674 17.2676 56.5241 18.5217 56.2295 19.4675C55.9351 20.4134 55.4534 21.1096 54.784 21.5453C54.1201 21.981 53.2152 22.2044 52.0748 22.2044C50.9077 22.2095 49.9868 21.9863 49.323 21.5399ZM53.0546 19.2444C53.2367 18.7661 53.3331 17.9849 53.3331 16.9063V12.3416C53.3331 11.2894 53.2421 10.5242 53.0546 10.0354C52.8727 9.55176 52.546 9.30733 52.0802 9.30733C51.6306 9.30733 51.3146 9.55176 51.1272 10.0354C50.9452 10.5189 50.8489 11.2894 50.8489 12.3416V16.9063C50.8489 17.9903 50.9345 18.7715 51.1112 19.2444C51.2879 19.7227 51.6091 19.9617 52.0749 19.9617C52.546 19.9617 52.8673 19.7227 53.0546 19.2444ZM100.437 16.4865C100.437 17.427 100.464 18.1284 100.523 18.6013C100.576 19.069 100.694 19.4144 100.871 19.6271C101.048 19.8395 101.321 19.9512 101.69 19.9512C102.188 19.9512 102.531 19.7599 102.713 19.3772C102.895 18.9946 102.996 18.3569 103.013 17.4642L105.877 17.629C105.893 17.7564 105.898 17.9318 105.898 18.1549C105.898 19.5101 105.523 20.5196 104.779 21.1892C104.035 21.8587 102.98 22.1935 101.615 22.1935C99.9768 22.1935 98.8311 21.6834 98.1726 20.6631C97.514 19.6429 97.1875 18.0699 97.1875 15.9338V13.3778C97.1875 11.1779 97.5301 9.57826 98.2099 8.56349C98.8899 7.5538 100.057 7.04889 101.712 7.04889C102.852 7.04889 103.725 7.25624 104.335 7.67066C104.945 8.08508 105.374 8.728 105.625 9.6049C105.872 10.4817 106 11.6933 106 13.2343V15.7425H100.437V16.4865ZM100.86 9.58362C100.694 9.79096 100.582 10.131 100.523 10.5987C100.464 11.0662 100.437 11.7837 100.437 12.7348V13.787H102.868V12.7348C102.868 11.7941 102.836 11.0822 102.772 10.5987C102.707 10.115 102.59 9.76968 102.424 9.57304C102.258 9.37641 101.995 9.27548 101.642 9.27548C101.289 9.27012 101.026 9.37641 100.86 9.58362ZM41.2384 15.4715L37.4587 1.9263H40.7565L42.079 8.06393C42.4163 9.5784 42.6626 10.8644 42.8232 11.9324H42.9195C43.032 11.1672 43.2783 9.88654 43.6639 8.08508L45.0344 1.92094H48.3324L44.5097 15.4715V21.9704H41.2384V15.4715ZM67.3979 7.32531V21.965H64.8012L64.5121 20.1743H64.4425C63.7358 21.5293 62.6757 22.2042 61.2676 22.2042C60.2879 22.2042 59.565 21.8854 59.0993 21.2477C58.6335 20.61 58.4033 19.6164 58.4033 18.2613V7.32531H61.7228V18.0753C61.7228 18.7289 61.7923 19.1966 61.9369 19.4729C62.0815 19.7492 62.3224 19.8927 62.6597 19.8927C62.9488 19.8927 63.2272 19.8075 63.4895 19.6323C63.7518 19.4569 63.9499 19.2337 64.0785 18.9627V7.32517L67.3979 7.32531ZM84.4343 7.32531V21.965H81.8376L81.5484 20.1743H81.4788C80.7721 21.5293 79.7121 22.2042 78.3039 22.2042C77.3242 22.2042 76.6014 21.8854 76.1357 21.2477C75.6698 20.61 75.4396 19.6164 75.4396 18.2613V7.32531H78.7591V18.0753C78.7591 18.7289 78.8287 19.1966 78.9733 19.4729C79.1177 19.7492 79.3587 19.8927 79.696 19.8927C79.9852 19.8927 80.2635 19.8075 80.5258 19.6323C80.7882 19.4569 80.9863 19.2337 81.1148 18.9627V7.32517L84.4343 7.32531Z" fill="#828282"/>
<path fill-rule="evenodd" clip-rule="evenodd" d="M76.4247 4.57802H73.1266V21.965H69.8768V4.57802H66.5787V1.92643H76.4193V4.57802H76.4247ZM95.4259 9.66861C95.2225 8.74406 94.9012 8.07451 94.4515 7.66009C94.0018 7.24553 93.3861 7.03832 92.5989 7.03832C91.9888 7.03832 91.4211 7.20831 90.8911 7.5538C90.3611 7.8938 89.9542 8.34557 89.665 8.90349H89.6383V1.18767H86.4366V21.9704H89.1778L89.5151 20.5835H89.5848C89.8417 21.0777 90.2272 21.4656 90.7411 21.7525C91.2551 22.0395 91.8228 22.183 92.4491 22.183C93.5735 22.183 94.3979 21.6675 94.9281 20.6418C95.458 19.6164 95.7204 18.0116 95.7204 15.8275V13.5106C95.7258 11.8739 95.624 10.5932 95.4259 9.66861ZM92.3795 15.6415C92.3795 16.7097 92.3366 17.5439 92.2457 18.1497C92.1599 18.7555 92.0101 19.1859 91.8013 19.441C91.5924 19.696 91.3141 19.8236 90.9607 19.8236C90.6876 19.8236 90.4361 19.7599 90.2005 19.6323C89.9702 19.5047 89.7775 19.3135 89.6329 19.0583V10.7422C89.7454 10.3435 89.9381 10.0195 90.2113 9.76446C90.4842 9.50933 90.7786 9.38176 91.0999 9.38176C91.4372 9.38176 91.6995 9.51454 91.8816 9.7749C92.0636 10.0354 92.1922 10.4817 92.267 11.0981C92.3367 11.7198 92.3741 12.602 92.3741 13.7497V15.6415H92.3795Z" fill="#828282"/>
</svg>
